<svg id="visual" viewBox="0 0 900 600" width="900" height="600" xmlns="http://www.w3.org/2000/svg" xmlns:xlink="http://www.w3.org/1999/xlink" version="1.1"><rect x="0" y="0" width="900" height="600" fill="#dfdfdf"></rect><path d="M0 392L18.8 389.5C37.7 387 75.3 382 112.8 386.8C150.3 391.7 187.7 406.3 225.2 402C262.7 397.7 300.3 374.3 337.8 366.3C375.3 358.3 412.7 365.7 450.2 379.2C487.7 392.7 525.3 412.3 562.8 419.8C600.3 427.3 637.7 422.7 675.2 415.2C712.7 407.7 750.3 397.3 787.8 392C825.3 386.7 862.7 386.3 881.3 386.2L900 386L900 601L881.3 601C862.7 601 825.3 601 787.8 601C750.3 601 712.7 601 675.2 601C637.7 601 600.3 601 562.8 601C525.3 601 487.7 601 450.2 601C412.7 601 375.3 601 337.8 601C300.3 601 262.7 601 225.2 601C187.7 601 150.3 601 112.8 601C75.3 601 37.7 601 18.8 601L0 601Z" fill="#588157"></path><path d="M0 436L18.8 441C37.7 446 75.3 456 112.8 457.5C150.3 459 187.7 452 225.2 452.3C262.7 452.7 300.3 460.3 337.8 451.7C375.3 443 412.7 418 450.2 411.5C487.7 405 525.3 417 562.8 418C600.3 419 637.7 409 675.2 415.3C712.7 421.7 750.3 444.3 787.8 444.3C825.3 444.3 862.7 421.7 881.3 410.3L900 399L900 601L881.3 601C862.7 601 825.3 601 787.8 601C750.3 601 712.7 601 675.2 601C637.7 601 600.3 601 562.8 601C525.3 601 487.7 601 450.2 601C412.7 601 375.3 601 337.8 601C300.3 601 262.7 601 225.2 601C187.7 601 150.3 601 112.8 601C75.3 601 37.7 601 18.8 601L0 601Z" fill="#4d7453"></path><path d="M0 471L18.8 471.2C37.7 471.3 75.3 471.7 112.8 468.2C150.3 464.7 187.7 457.3 225.2 451.5C262.7 445.7 300.3 441.3 337.8 449.8C375.3 458.3 412.7 479.7 450.2 489.7C487.7 499.7 525.3 498.3 562.8 492C600.3 485.7 637.7 474.3 675.2 472.3C712.7 470.3 750.3 477.7 787.8 478.7C825.3 479.7 862.7 474.3 881.3 471.7L900 469L900 601L881.3 601C862.7 601 825.3 601 787.8 601C750.3 601 712.7 601 675.2 601C637.7 601 600.3 601 562.8 601C525.3 601 487.7 601 450.2 601C412.7 601 375.3 601 337.8 601C300.3 601 262.7 601 225.2 601C187.7 601 150.3 601 112.8 601C75.3 601 37.7 601 18.8 601L0 601Z" fill="#43674e"></path><path d="M0 535L18.8 535.2C37.7 535.3 75.3 535.7 112.8 533.3C150.3 531 187.7 526 225.2 523.2C262.7 520.3 300.3 519.7 337.8 521C375.3 522.3 412.7 525.7 450.2 525C487.7 524.3 525.3 519.7 562.8 520.7C600.3 521.7 637.7 528.3 675.2 531.5C712.7 534.7 750.3 534.3 787.8 530.8C825.3 527.3 862.7 520.7 881.3 517.3L900 514L900 601L881.3 601C862.7 601 825.3 601 787.8 601C750.3 601 712.7 601 675.2 601C637.7 601 600.3 601 562.8 601C525.3 601 487.7 601 450.2 601C412.7 601 375.3 601 337.8 601C300.3 601 262.7 601 225.2 601C187.7 601 150.3 601 112.8 601C75.3 601 37.7 601 18.8 601L0 601Z" fill="#3b5a48"></path><path d="M0 558L18.8 556.5C37.7 555 75.3 552 112.8 549C150.3 546 187.7 543 225.2 545.8C262.7 548.7 300.3 557.3 337.8 557C375.3 556.7 412.7 547.3 450.2 546.2C487.7 545 525.3 552 562.8 555.8C600.3 559.7 637.7 560.3 675.2 555.2C712.7 550 750.3 539 787.8 533.5C825.3 528 862.7 528 881.3 528L900 528L900 601L881.3 601C862.7 601 825.3 601 787.8 601C750.3 601 712.7 601 675.2 601C637.7 601 600.3 601 562.8 601C525.3 601 487.7 601 450.2 601C412.7 601 375.3 601 337.8 601C300.3 601 262.7 601 225.2 601C187.7 601 150.3 601 112.8 601C75.3 601 37.7 601 18.8 601L0 601Z" fill="#344e41"></path></svg>